<?xml version="1.0" encoding="utf-8"?>
<!-- Generator: Adobe Illustrator 26.0.3, SVG Export Plug-In . SVG Version: 6.00 Build 0)  -->
<svg version="1.1" id="Layer_1" xmlns="http://www.w3.org/2000/svg" xmlns:xlink="http://www.w3.org/1999/xlink" x="0px" y="0px"
	 viewBox="0 0 72 72" style="enable-background:new 0 0 72 72;" xml:space="preserve">
<style type="text/css">
	.st0{fill:none;stroke:#6800EC;stroke-width:4;stroke-miterlimit:10;}
</style>
<g>
	<path class="st0" d="M6,52.1c0,4.1,3.4,7.5,7.5,7.5h45c4.1,0,7.5-3.4,7.5-7.5V31.4H6V52.1z M14.9,41.9c0-2.2,1.8-4,4-4l0,0h6.4
		c2.2,0,4,1.8,4,4l0,0v2.7c0,2.2-1.8,4-4,4l0,0h-6.4c-2.2,0-4-1.8-4-4l0,0V41.9z"/>
	<path class="st0" d="M58.5,12.4h-45c-4.1,0-7.5,3.4-7.5,7.5v3.5h60v-3.5C66,15.8,62.6,12.4,58.5,12.4z"/>
</g>
</svg>
