<?xml version="1.0" encoding="utf-8"?>
<!-- Generator: Adobe Illustrator 26.0.3, SVG Export Plug-In . SVG Version: 6.00 Build 0)  -->
<svg version="1.1" id="Layer_1" xmlns="http://www.w3.org/2000/svg" xmlns:xlink="http://www.w3.org/1999/xlink" x="0px" y="0px"
	 viewBox="0 0 72 72" style="enable-background:new 0 0 72 72;" xml:space="preserve">
<style type="text/css">
	.st0{fill:none;stroke:#6800EC;stroke-width:4;stroke-miterlimit:10;}
</style>
<path class="st0" d="M36,4.9C18.8,4.9,4.9,18.8,4.9,36S18.8,67.1,36,67.1S67.1,53.2,67.1,36S53.2,4.9,36,4.9z M46.5,46.7H26.6
	c-4.8,0-8.7-3.8-8.6-8.6s3.5-7.5,7.7-8.1c0.4-0.1,0.8-0.4,1-0.8c1.2-3.3,4.5-6.6,9.3-6.6c4.9,0,9.2,3.3,10.5,9c0.2,1,1,1.8,2,2
	c2.8,0.7,5.5,2.7,5.5,6.4C54,44.8,50.6,46.7,46.5,46.7z"/>
</svg>
