<?xml version="1.0" encoding="utf-8"?>
<!-- Generator: Adobe Illustrator 26.0.3, SVG Export Plug-In . SVG Version: 6.00 Build 0)  -->
<svg version="1.1" id="Layer_1" xmlns="http://www.w3.org/2000/svg" xmlns:xlink="http://www.w3.org/1999/xlink" x="0px" y="0px"
	 viewBox="0 0 72 72" style="enable-background:new 0 0 72 72;" xml:space="preserve">
<style type="text/css">
	.st0{fill:none;stroke:#6800EC;stroke-width:4;stroke-miterlimit:10;}
</style>
<path class="st0" d="M66.6,16.1c-0.1-1-0.8-1.8-1.8-2C53,12,48,10.4,36.9,5.4c-0.6-0.3-1.2-0.3-1.8,0C24,10.4,19,12,7.2,14.1
	c-1,0.2-1.7,1-1.8,2C4.8,24.5,6,32.4,8.7,39.4c2.3,5.7,5.6,11,9.8,15.5c7.3,7.8,15.1,11.2,16.6,11.8c0.5,0.2,1.1,0.2,1.6,0
	c1.5-0.6,9.3-4,16.6-11.8c4.2-4.5,7.6-9.7,9.8-15.5C66,32.4,67.2,24.5,66.6,16.1z M48.6,26.5L33.4,44c-0.4,0.5-1,0.7-1.6,0.8h-0.1
	c-0.6,0-1.1-0.2-1.5-0.6l-6.8-6.6c-0.9-0.8-0.9-2.2,0-3.1c0.8-0.9,2.2-0.9,3.1,0l0,0l5.1,5l13.7-15.8c0.8-0.9,2.2-1,3.1-0.2
	C49.3,24.1,49.4,25.5,48.6,26.5L48.6,26.5z"/>
</svg>
